<svg width="34" height="32" viewBox="0 0 34 32" fill="none" xmlns="http://www.w3.org/2000/svg">
<path d="M28.6666 0.333374H5.33325C2.57659 0.333374 0.333252 2.57671 0.333252 5.33337V10.0517C0.333252 11.8067 0.969919 13.4017 1.99992 14.6284V30.3334C1.99992 30.7754 2.17551 31.1993 2.48807 31.5119C2.80063 31.8244 3.22456 32 3.66659 32H16.9999C17.4419 32 17.8659 31.8244 18.1784 31.5119C18.491 31.1993 18.6666 30.7754 18.6666 30.3334V22H25.3333V30.3334C25.3333 30.7754 25.5088 31.1993 25.8214 31.5119C26.134 31.8244 26.5579 32 26.9999 32H30.3333C30.7753 32 31.1992 31.8244 31.5118 31.5119C31.8243 31.1993 31.9999 30.7754 31.9999 30.3334V14.6267C33.0299 13.4017 33.6666 11.8067 33.6666 10.05V5.33337C33.6666 2.57671 31.4233 0.333374 28.6666 0.333374ZM30.3333 5.33337V10.0517C30.3333 11.9517 28.9183 13.5717 27.1816 13.6634L26.9999 13.6667C25.1616 13.6667 23.6666 12.1717 23.6666 10.3334V3.66671H28.6666C29.5866 3.66671 30.3333 4.41504 30.3333 5.33337ZM13.6666 10.3334V3.66671H20.3333V10.3334C20.3333 12.1717 18.8383 13.6667 16.9999 13.6667C15.1616 13.6667 13.6666 12.1717 13.6666 10.3334ZM3.66659 5.33337C3.66659 4.41504 4.41325 3.66671 5.33325 3.66671H10.3333V10.3334C10.3333 12.1717 8.83825 13.6667 6.99992 13.6667L6.81825 13.6617C5.08158 13.5717 3.66659 11.9517 3.66659 10.0517V5.33337ZM13.6666 23.6667H6.99992V18.6667H13.6666V23.6667Z" fill="url(#paint0_linear_3709_1591)"/>
<defs>
<linearGradient id="paint0_linear_3709_1591" x1="16.9999" y1="0.333374" x2="16.9999" y2="32" gradientUnits="userSpaceOnUse">
<stop stop-color="#EA9769"/>
<stop offset="1" stop-color="#EA6969"/>
</linearGradient>
</defs>
</svg>
